<?xml version="1.0" encoding="UTF-8" standalone="no"?>
<!-- Generator: Adobe Illustrator 21.1.0, SVG Export Plug-In . SVG Version: 6.00 Build 0)  -->

<svg
   xmlns:dc="http://purl.org/dc/elements/1.1/"
   xmlns:cc="http://creativecommons.org/ns#"
   xmlns:rdf="http://www.w3.org/1999/02/22-rdf-syntax-ns#"
   xmlns:svg="http://www.w3.org/2000/svg"
   xmlns="http://www.w3.org/2000/svg"
   xmlns:sodipodi="http://sodipodi.sourceforge.net/DTD/sodipodi-0.dtd"
   xmlns:inkscape="http://www.inkscape.org/namespaces/inkscape"
   version="1.1"
   x="0px"
   y="0px"
   viewBox="0 0 599.30001 255.1"
   xml:space="preserve"
   id="svg44"
   sodipodi:docname="icon-fast-delivery.svg"
   width="599.29999"
   height="255.10001"
   inkscape:version="0.92.3 (2405546, 2018-03-11)"><metadata
   id="metadata50"><rdf:RDF><cc:Work
       rdf:about=""><dc:format>image/svg+xml</dc:format><dc:type
         rdf:resource="http://purl.org/dc/dcmitype/StillImage" /><dc:title></dc:title></cc:Work></rdf:RDF></metadata><defs
   id="defs48" /><sodipodi:namedview
   pagecolor="#ffffff"
   bordercolor="#666666"
   borderopacity="1"
   objecttolerance="10"
   gridtolerance="10"
   guidetolerance="10"
   inkscape:pageopacity="0"
   inkscape:pageshadow="2"
   inkscape:window-width="1440"
   inkscape:window-height="2531"
   id="namedview46"
   showgrid="false"
   fit-margin-top="0"
   fit-margin-left="0"
   fit-margin-right="0"
   fit-margin-bottom="0"
   inkscape:zoom="0.39650537"
   inkscape:cx="299.39999"
   inkscape:cy="137.19999"
   inkscape:window-x="-9"
   inkscape:window-y="-9"
   inkscape:window-maximized="1"
   inkscape:current-layer="svg44" />
<style
   type="text/css"
   id="style2">
	.st0{display:none;}
	.st1{display:inline;fill:none;stroke:#2491CB;stroke-width:0.4982;stroke-miterlimit:10;}
	.st2{fill:#7B7A79;}
</style>
<g
   id="Layer_1"
   class="st0"
   style="display:none"
   transform="translate(-0.9,-179.7)">
	<line
   class="st1"
   x1="6.4000001"
   y1="297.60001"
   x2="599.5"
   y2="297.60001"
   id="line4"
   style="display:inline;fill:none;stroke:#2491cb;stroke-width:0.4982;stroke-miterlimit:10" />
	<line
   class="st1"
   x1="5.5999999"
   y1="595"
   x2="600.40002"
   y2="0.2"
   id="line6"
   style="display:inline;fill:none;stroke:#2491cb;stroke-width:0.4982;stroke-miterlimit:10" />
	<line
   class="st1"
   x1="303"
   y1="594.09998"
   x2="303"
   y2="1.1"
   id="line8"
   style="display:inline;fill:none;stroke:#2491cb;stroke-width:0.4982;stroke-miterlimit:10" />
	<line
   class="st1"
   x1="416.5"
   y1="571.59998"
   x2="189.5"
   y2="23.6"
   id="line10"
   style="display:inline;fill:none;stroke:#2491cb;stroke-width:0.4982;stroke-miterlimit:10" />
	<line
   class="st1"
   x1="576.90002"
   y1="411.10001"
   x2="29"
   y2="184.10001"
   id="line12"
   style="display:inline;fill:none;stroke:#2491cb;stroke-width:0.4982;stroke-miterlimit:10" />
	<line
   class="st1"
   x1="576.90002"
   y1="184.10001"
   x2="29"
   y2="411.10001"
   id="line14"
   style="display:inline;fill:none;stroke:#2491cb;stroke-width:0.4982;stroke-miterlimit:10" />
	<line
   class="st1"
   x1="416.5"
   y1="23.6"
   x2="189.5"
   y2="571.59998"
   id="line16"
   style="display:inline;fill:none;stroke:#2491cb;stroke-width:0.4982;stroke-miterlimit:10" />
	<line
   class="st1"
   x1="599.5"
   y1="594.09998"
   x2="6.4000001"
   y2="1.1"
   id="line18"
   style="display:inline;fill:none;stroke:#2491cb;stroke-width:0.4982;stroke-miterlimit:10" />
	<circle
   class="st1"
   cx="303"
   cy="297.60001"
   r="296.5"
   id="circle20"
   style="display:inline;fill:none;stroke:#2491cb;stroke-width:0.4982;stroke-miterlimit:10" />
	<rect
   x="93.300003"
   y="87.900002"
   class="st1"
   width="419.39999"
   height="419.39999"
   id="rect22"
   style="display:inline;fill:none;stroke:#2491cb;stroke-width:0.4982;stroke-miterlimit:10" />
	<circle
   class="st1"
   cx="303"
   cy="297.60001"
   r="209.7"
   id="circle24"
   style="display:inline;fill:none;stroke:#2491cb;stroke-width:0.4982;stroke-miterlimit:10" />
	<circle
   class="st1"
   cx="303"
   cy="297.60001"
   r="148.3"
   id="circle26"
   style="display:inline;fill:none;stroke:#2491cb;stroke-width:0.4982;stroke-miterlimit:10" />
	<rect
   x="154.7"
   y="149.3"
   class="st1"
   width="296.60001"
   height="296.60001"
   id="rect28"
   style="display:inline;fill:none;stroke:#2491cb;stroke-width:0.4982;stroke-miterlimit:10" />
</g>
<g
   id="Layer_3"
   transform="translate(-0.9,-179.7)">
	<path
   class="st2"
   d="m 120.7,394.7 c 0,-22.1 18,-40.1 40.1,-40.1 22.1,0 40.1,18 40.1,40.1 0,22.1 -18,40.1 -40.1,40.1 -22.1,0 -40.1,-18 -40.1,-40.1 z m 19,0 c 0,11.6 9.5,21.1 21.1,21.1 11.6,0 21.1,-9.5 21.1,-21.1 0,-11.6 -9.4,-21.1 -21.1,-21.1 -11.7,0 -21.1,9.5 -21.1,21.1 z"
   id="path31"
   inkscape:connector-curvature="0"
   style="fill:#7b7a79" />
	<path
   class="st2"
   d="m 207.1,394.7 c 0,-22.1 18,-40.1 40.1,-40.1 22.1,0 40.1,18 40.1,40.1 0,22.1 -18,40.1 -40.1,40.1 -22.1,0 -40.1,-18 -40.1,-40.1 z m 19,0 c 0,11.6 9.5,21.1 21.1,21.1 11.6,0 21.1,-9.5 21.1,-21.1 0,-11.6 -9.4,-21.1 -21.1,-21.1 -11.6,0 -21.1,9.5 -21.1,21.1 z"
   id="path33"
   inkscape:connector-curvature="0"
   style="fill:#7b7a79" />
	<path
   class="st2"
   d="m 550.9,404 h 31.6 c 9.8,0 17.7,-8 17.7,-17.7 v -15.8 c 0,-6.8 -3.8,-12.7 -9.4,-15.7 v -29 c 0.1,-7.4 -1,-13.8 -3,-19.1 -1.6,-4.2 -26.1,-68.2 -26.4,-68.8 -4.8,-12.6 -18.1,-21.7 -31.5,-21.7 h -66.7 c -16.1,0 -29.2,13.1 -29.2,29.2 l -0.2,113.9 c 0,5.2 4.2,9.5 9.5,9.5 0,0 0,0 0,0 5.2,0 9.5,-4.2 9.5,-9.5 L 453,245.4 c 0,-5.6 4.6,-10.2 10.2,-10.2 H 530 c 5.6,0 11.8,4.3 13.8,9.5 1,2.6 24.7,64.7 26.4,68.9 0.8,2.1 1.8,5.9 1.7,12.1 v 0.4 36.2 c 0,5.2 4.2,9.5 9.4,9.5 V 385 h -30.4 c -5.2,0 -9.5,4.3 -9.5,9.5 0,5.2 4.3,9.5 9.5,9.5 z"
   id="path35"
   inkscape:connector-curvature="0"
   style="fill:#7b7a79" />
	<path
   class="st2"
   d="m 449.6,394.7 c 0,-22.1 18,-40.1 40.1,-40.1 22.1,0 40.1,18 40.1,40.1 0,22.1 -18,40.1 -40.1,40.1 -22.1,0 -40.1,-18 -40.1,-40.1 z m 19,0 c 0,11.6 9.5,21.1 21.1,21.1 11.6,0 21.1,-9.5 21.1,-21.1 0,-11.6 -9.5,-21.1 -21.1,-21.1 -11.6,0 -21.1,9.5 -21.1,21.1 z"
   id="path37"
   inkscape:connector-curvature="0"
   style="fill:#7b7a79" />
	<path
   class="st2"
   d="m 464.5,310.6 v -53.2 c 0,-5.5 4.5,-10.1 10.1,-10.1 h 54.3 c 3.9,0 7.4,2.3 8.8,5.9 l 21.7,53.8 c 1.2,2.9 0.8,6.3 -0.9,8.9 -1.8,2.6 -4.7,4.2 -7.9,4.2 H 474 c -5.2,0 -9.5,-4.3 -9.5,-9.5 z m 58,-44.3 h -39 v 34.8 h 53 z"
   id="path39"
   inkscape:connector-curvature="0"
   style="fill:#7b7a79" />
	<path
   class="st2"
   d="M 407.8,179.7 H 99.3 c -11.4,0 -20.7,9.3 -20.7,20.7 v 1.9 H 10.4 c -5.2,0 -9.5,4.3 -9.5,9.5 0,5.2 4.3,9.5 9.5,9.5 h 68.2 v 15 h -54 c -5.2,0 -9.5,4.3 -9.5,9.5 0,5.2 4.3,9.5 9.5,9.5 h 54 v 15 H 38.7 c -5.2,0 -9.5,4.3 -9.5,9.5 0,5.2 4.3,9.5 9.5,9.5 h 39.8 v 15 H 52.9 c -5.2,0 -9.5,4.3 -9.5,9.5 0,5.2 4.3,9.5 9.5,9.5 h 25.7 v 29.3 H 77 c -8.9,0 -16.2,7.3 -16.2,16.2 v 19 c 0,8.9 7.3,16.2 16.2,16.2 h 26.1 c 5.2,0 9.5,-4.3 9.5,-9.5 0,-5.2 -4.3,-9.5 -9.5,-9.5 H 79.8 v -13.3 h 8.3 c 5.2,0 9.5,-4.3 9.5,-9.5 V 200.4 c 0,-0.9 0.8,-1.7 1.7,-1.7 h 308.5 c 0.9,0 1.7,0.8 1.7,1.7 V 385 h -102 c -5.2,0 -9.5,4.3 -9.5,9.5 0,5.2 4.3,9.5 9.5,9.5 H 419 c 5.2,0 9.5,-4.3 9.5,-9.5 V 200.4 c 0,-11.4 -9.3,-20.7 -20.7,-20.7 z"
   id="path41"
   inkscape:connector-curvature="0"
   style="fill:#7b7a79" />
</g>
</svg>