<svg class="svg-icon" viewBox="0 0 1024 1024" version="1.1" xmlns="http://www.w3.org/2000/svg"><path d="M470.09792 692.59264c59.04384 0 114.81088-20.93056 159.19104-59.00288l215.73632 216.2688a20.39808 20.39808 0 0 0 28.95872 0.04096 20.48 20.48 0 0 0 0.04096-28.95872L658.10432 604.50816c80.83456-96.54272 76.12416-241.11104-14.4384-331.8784-46.36672-46.4896-108.01152-72.0896-173.58848-72.0896s-127.22176 25.6-173.58848 72.0896c-95.66208 95.92832-95.66208 251.98592 0 347.89376a243.712 243.712 0 0 0 173.60896 72.06912z m-144.56832-391.04512c38.62528-38.72768 89.96864-60.04736 144.5888-60.04736s105.96352 21.31968 144.5888 60.04736c79.7696 79.9744 79.7696 210.08384 0 290.05824-38.62528 38.72768-89.96864 60.04736-144.5888 60.04736s-105.96352-21.31968-144.5888-60.04736C245.76 511.61088 245.76 381.52192 325.5296 301.54752z" fill="" /><path d="M378.368 466.57536h76.86144v76.86144a20.48 20.48 0 1 0 40.96 0v-76.86144h76.84096a20.48 20.48 0 1 0 0-40.96h-76.84096v-76.86144a20.48 20.48 0 1 0-40.96 0v76.86144h-76.86144a20.48 20.48 0 1 0 0 40.96z" fill="" /></svg>