<?xml version="1.0" encoding="utf-8"?><svg xmlns="http://www.w3.org/2000/svg" xmlns:xlink="http://www.w3.org/1999/xlink"><symbol viewBox="0 0 448 512" id="bars-light" xmlns="http://www.w3.org/2000/svg"><path fill="currentColor" d="M0 80c0-8.8 7.2-16 16-16h416c8.8 0 16 7.2 16 16s-7.2 16-16 16H16C7.2 96 0 88.8 0 80zm0 160c0-8.8 7.2-16 16-16h416c8.8 0 16 7.2 16 16s-7.2 16-16 16H16c-8.8 0-16-7.2-16-16zm448 160c0 8.8-7.2 16-16 16H16c-8.8 0-16-7.2-16-16s7.2-16 16-16h416c8.8 0 16 7.2 16 16z"/></symbol><symbol viewBox="0 0 576 512" id="basket-icon" xmlns="http://www.w3.org/2000/svg"><path fill="currentColor" d="M551.991 64H144.28l-8.726-44.608C133.35 8.128 123.478 0 112 0H12C5.373 0 0 5.373 0 12v24c0 6.627 5.373 12 12 12h80.24l69.594 355.701C150.796 415.201 144 430.802 144 448c0 35.346 28.654 64 64 64s64-28.654 64-64a63.681 63.681 0 0 0-8.583-32h145.167a63.681 63.681 0 0 0-8.583 32c0 35.346 28.654 64 64 64 35.346 0 64-28.654 64-64 0-18.136-7.556-34.496-19.676-46.142l1.035-4.757c3.254-14.96-8.142-29.101-23.452-29.101H203.76l-9.39-48h312.405c11.29 0 21.054-7.869 23.452-18.902l45.216-208C578.695 78.139 567.299 64 551.991 64zM208 472c-13.234 0-24-10.766-24-24s10.766-24 24-24 24 10.766 24 24-10.766 24-24 24zm256 0c-13.234 0-24-10.766-24-24s10.766-24 24-24 24 10.766 24 24-10.766 24-24 24zm23.438-200H184.98l-31.31-160h368.548l-34.78 160z"/></symbol><symbol viewBox="0 0 50 50" id="basket-trash" xmlns="http://www.w3.org/2000/svg"><path fill="currentColor" d="M21 0c-1.645 0-3 1.355-3 3v2h-7.813a1.009 1.009 0 0 0-.374 0H7.905c-.55.027-.98.496-.953 1.047.027.55.496.98 1.047.953h1.094l3.594 40.5c.124 1.398 1.316 2.5 2.718 2.5h19.188c1.402 0 2.593-1.102 2.718-2.5L40.907 7H42c.36.004.695-.184.879-.496a1.01 1.01 0 0 0 0-1.008c-.184-.312-.52-.5-.879-.496H32V3c0-1.645-1.355-3-3-3Zm0 2h8c.563 0 1 .438 1 1v2H20V3c0-.563.438-1 1-1Zm-9.906 5h27.812l-3.593 40.344c-.032.347-.403.656-.72.656H15.407c-.316 0-.687-.309-.719-.656Zm7.812 2.969c-.043.008-.086.02-.125.031A1.002 1.002 0 0 0 18 11v33c-.004.36.184.695.496.879.313.18.695.18 1.008 0 .312-.184.5-.52.496-.879V11a1 1 0 0 0-1.094-1.031Zm6 0c-.043.008-.086.02-.125.031A1.002 1.002 0 0 0 24 11v33c-.004.36.184.695.496.879.313.18.695.18 1.008 0 .312-.184.5-.52.496-.879V11a1 1 0 0 0-1.094-1.031Zm6 0c-.043.008-.086.02-.125.031A1.002 1.002 0 0 0 30 11v33c-.004.36.184.695.496.879.313.18.695.18 1.008 0 .312-.184.5-.52.496-.879V11a1 1 0 0 0-1.094-1.031Z"/></symbol><symbol viewBox="0 0 512 512" id="check-icon" xmlns="http://www.w3.org/2000/svg"><path fill="currentColor" d="M435.848 83.466 172.804 346.51l-96.652-96.652c-4.686-4.686-12.284-4.686-16.971 0l-28.284 28.284c-4.686 4.686-4.686 12.284 0 16.971l133.421 133.421c4.686 4.686 12.284 4.686 16.971 0l299.813-299.813c4.686-4.686 4.686-12.284 0-16.971l-28.284-28.284c-4.686-4.686-12.284-4.686-16.97 0z"/></symbol><symbol viewBox="0 0 16 16" id="check-square-fill-icon" xmlns="http://www.w3.org/2000/svg"><path fill="currentColor" d="M2 0a2 2 0 0 0-2 2v12a2 2 0 0 0 2 2h12a2 2 0 0 0 2-2V2a2 2 0 0 0-2-2zm10.03 4.97a.75.75 0 0 1 .011 1.05l-3.992 4.99a.75.75 0 0 1-1.08.02L4.324 8.384a.75.75 0 1 1 1.06-1.06l2.094 2.093 3.473-4.425a.75.75 0 0 1 1.08-.022z"/></symbol><symbol viewBox="0 0 512 512" id="chevron-down-light" xmlns="http://www.w3.org/2000/svg"><path fill="currentColor" d="M267.3 395.3c-6.2 6.2-16.4 6.2-22.6 0l-192-192c-6.2-6.2-6.2-16.4 0-22.6s16.4-6.2 22.6 0L256 361.4l180.7-180.7c6.2-6.2 16.4-6.2 22.6 0s6.2 16.4 0 22.6l-192 192z"/></symbol><symbol viewBox="0 0 24 24" id="close" xmlns="http://www.w3.org/2000/svg"><path d="M4 20 20 4M4 4l16 16"/></symbol><symbol xml:space="preserve" id="fast-delivery-icon" viewBox="0 0 599.3 255.1" xmlns="http://www.w3.org/2000/svg"><style type="text/css" id="hstyle2">.st1{display:inline;fill:none;stroke:#2491cb;stroke-width:.4982;stroke-miterlimit:10}.hst2{fill:#7b7a79}</style><g id="hLayer_3" transform="translate(-.9 -179.7)"><path class="hst2" d="M120.7 394.7c0-22.1 18-40.1 40.1-40.1s40.1 18 40.1 40.1-18 40.1-40.1 40.1-40.1-18-40.1-40.1zm19 0c0 11.6 9.5 21.1 21.1 21.1 11.6 0 21.1-9.5 21.1-21.1 0-11.6-9.4-21.1-21.1-21.1-11.7 0-21.1 9.5-21.1 21.1z" id="hpath31" style="fill:#7b7a79"/><path class="hst2" d="M207.1 394.7c0-22.1 18-40.1 40.1-40.1s40.1 18 40.1 40.1-18 40.1-40.1 40.1-40.1-18-40.1-40.1zm19 0c0 11.6 9.5 21.1 21.1 21.1 11.6 0 21.1-9.5 21.1-21.1 0-11.6-9.4-21.1-21.1-21.1-11.6 0-21.1 9.5-21.1 21.1z" id="hpath33" style="fill:#7b7a79"/><path class="hst2" d="M550.9 404h31.6c9.8 0 17.7-8 17.7-17.7v-15.8c0-6.8-3.8-12.7-9.4-15.7v-29c.1-7.4-1-13.8-3-19.1-1.6-4.2-26.1-68.2-26.4-68.8-4.8-12.6-18.1-21.7-31.5-21.7h-66.7c-16.1 0-29.2 13.1-29.2 29.2l-.2 113.9c0 5.2 4.2 9.5 9.5 9.5 5.2 0 9.5-4.2 9.5-9.5l.2-113.9c0-5.6 4.6-10.2 10.2-10.2H530c5.6 0 11.8 4.3 13.8 9.5 1 2.6 24.7 64.7 26.4 68.9.8 2.1 1.8 5.9 1.7 12.1v36.6c0 5.2 4.2 9.5 9.4 9.5V385h-30.4c-5.2 0-9.5 4.3-9.5 9.5s4.3 9.5 9.5 9.5z" id="hpath35" style="fill:#7b7a79"/><path class="hst2" d="M449.6 394.7c0-22.1 18-40.1 40.1-40.1s40.1 18 40.1 40.1-18 40.1-40.1 40.1-40.1-18-40.1-40.1zm19 0c0 11.6 9.5 21.1 21.1 21.1 11.6 0 21.1-9.5 21.1-21.1 0-11.6-9.5-21.1-21.1-21.1-11.6 0-21.1 9.5-21.1 21.1z" id="hpath37" style="fill:#7b7a79"/><path class="hst2" d="M464.5 310.6v-53.2c0-5.5 4.5-10.1 10.1-10.1h54.3c3.9 0 7.4 2.3 8.8 5.9l21.7 53.8c1.2 2.9.8 6.3-.9 8.9-1.8 2.6-4.7 4.2-7.9 4.2H474c-5.2 0-9.5-4.3-9.5-9.5zm58-44.3h-39v34.8h53z" id="hpath39" style="fill:#7b7a79"/><path class="hst2" d="M407.8 179.7H99.3c-11.4 0-20.7 9.3-20.7 20.7v1.9H10.4c-5.2 0-9.5 4.3-9.5 9.5s4.3 9.5 9.5 9.5h68.2v15h-54c-5.2 0-9.5 4.3-9.5 9.5s4.3 9.5 9.5 9.5h54v15H38.7c-5.2 0-9.5 4.3-9.5 9.5s4.3 9.5 9.5 9.5h39.8v15H52.9c-5.2 0-9.5 4.3-9.5 9.5s4.3 9.5 9.5 9.5h25.7v29.3H77c-8.9 0-16.2 7.3-16.2 16.2v19c0 8.9 7.3 16.2 16.2 16.2h26.1c5.2 0 9.5-4.3 9.5-9.5s-4.3-9.5-9.5-9.5H79.8v-13.3h8.3c5.2 0 9.5-4.3 9.5-9.5V200.4c0-.9.8-1.7 1.7-1.7h308.5c.9 0 1.7.8 1.7 1.7V385h-102c-5.2 0-9.5 4.3-9.5 9.5s4.3 9.5 9.5 9.5H419c5.2 0 9.5-4.3 9.5-9.5V200.4c0-11.4-9.3-20.7-20.7-20.7z" id="hpath41" style="fill:#7b7a79"/></g></symbol><symbol viewBox="0 0 24 24" id="filled-right-arrow" xmlns="http://www.w3.org/2000/svg"><path fill="currentColor" d="M21 12 3 24V0z"/></symbol><symbol class="jsvg-icon" viewBox="0 0 1024 1024" id="magnifying-glass-icon" xmlns="http://www.w3.org/2000/svg"><path d="M470.098 692.593c59.044 0 114.81-20.93 159.191-59.003l215.736 216.269a20.398 20.398 0 0 0 28.959.04 20.48 20.48 0 0 0 .041-28.958l-215.92-216.433c80.834-96.543 76.123-241.11-14.44-331.878-46.366-46.49-108.01-72.09-173.588-72.09s-127.221 25.6-173.588 72.09c-95.662 95.928-95.662 251.986 0 347.894a243.712 243.712 0 0 0 173.609 72.069zM325.53 301.548c38.625-38.728 89.968-60.048 144.588-60.048s105.964 21.32 144.59 60.048c79.769 79.974 79.769 210.083 0 290.058-38.626 38.727-89.97 60.047-144.59 60.047s-105.963-21.32-144.588-60.047c-79.77-79.995-79.77-210.084 0-290.058z"/><path d="M378.368 466.575h76.861v76.862a20.48 20.48 0 1 0 40.96 0v-76.862h76.841a20.48 20.48 0 1 0 0-40.96h-76.84v-76.861a20.48 20.48 0 1 0-40.96 0v76.861h-76.862a20.48 20.48 0 1 0 0 40.96z"/></symbol><symbol viewBox="0 0 640 512" id="messages-question-light" xmlns="http://www.w3.org/2000/svg"><path fill="currentColor" d="M202.7 288H352c17.7 0 32-14.3 32-32V64c0-17.7-14.3-32-32-32H64c-17.7 0-32 14.3-32 32v192c0 17.7 14.3 32 32 32h32c17.7 0 32 14.3 32 32v16l55.5-41.6c5.5-4.2 12.3-6.4 19.2-6.4zM352 320H202.7l-81.1 60.8c-4.8 3.6-11.3 4.2-16.8 1.5S96 374.1 96 368v-48H64c-35.3 0-64-28.7-64-64V64C0 28.7 28.7 0 64 0h288c35.3 0 64 28.7 64 64v192c0 35.3-28.7 64-64 64zm-32 128c-35.3 0-64-28.7-64-64v-32h32v32c0 17.7 14.3 32 32 32h117.3c6.9 0 13.7 2.2 19.2 6.4L512 464v-16c0-17.7 14.3-32 32-32h32c17.7 0 32-14.3 32-32V192c0-17.7-14.3-32-32-32H448v-32h128c35.3 0 64 28.7 64 64v192c0 35.3-28.7 64-64 64h-32v48c0 6.1-3.4 11.6-8.8 14.3s-11.9 2.1-16.8-1.5L437.3 448H320zM184.3 70.3c-16.4 0-31 10.3-36.4 25.7l-.3.9c-3 8.3 1.4 17.5 9.7 20.4s17.5-1.4 20.4-9.7l.3-.9c.9-2.7 3.5-4.4 6.3-4.4h41.3c6.5 0 11.7 5.3 11.7 11.7 0 4.2-2.2 8.1-5.9 10.2l-31.4 18c-5 2.9-8 8.1-8 13.9v9.5c0 8.8 7.2 16 16 16s16-7.2 16-16v-.3l23.4-13.3c13.6-7.8 22-22.3 22-37.9 0-24.2-19.6-43.7-43.7-43.7h-41.4zM208 250.7a22.7 22.7 0 1 0 0-45.3 22.7 22.7 0 1 0 0 45.3z"/></symbol><symbol viewBox="0 0 512 512" id="pencil-icon" xmlns="http://www.w3.org/2000/svg"><path fill="currentColor" d="m491.609 73.625-53.861-53.839c-26.378-26.379-69.075-26.383-95.46-.001L24.91 335.089.329 484.085c-2.675 16.215 11.368 30.261 27.587 27.587l148.995-24.582 315.326-317.378c26.33-26.331 26.581-68.879-.628-96.087zM200.443 311.557C204.739 315.853 210.37 318 216 318s11.261-2.147 15.557-6.443l119.029-119.03 28.569 28.569L210 391.355V350h-48v-48h-41.356l170.259-169.155 28.569 28.569-119.03 119.029c-8.589 8.592-8.589 22.522.001 31.114zM82.132 458.132l-28.263-28.263 12.14-73.587L84.409 338H126v48h48v41.59l-18.282 18.401-73.586 12.141zm378.985-319.533-.051.051-.051.051-48.03 48.344-88.03-88.03 48.344-48.03.05-.05.05-.05c9.147-9.146 23.978-9.259 33.236-.001l53.854 53.854c9.878 9.877 9.939 24.549.628 33.861z"/></symbol><symbol viewBox="0 0 512 512" id="phone-thin-icon" xmlns="http://www.w3.org/2000/svg"><path fill="currentColor" d="M317.1 378.1c-4.7 5.7-12.6 7.5-19.2 4.3-73.8-34.8-133.5-94.5-168.3-168.3-3.1-6.6-1.3-14.6 4.3-19.2l49.3-40.4c8.2-6.7 11-18 7-27.8l-40-96c-4.6-11.1-16.8-17.1-28.5-13.9l-88 24C23.2 43.7 16 53.2 16 64c0 238.6 193.4 432 432 432 10.8 0 20.3-7.2 23.2-17.7l24-88c3.2-11.6-2.8-23.8-13.9-28.5l-96-40c-9.8-4.1-21.1-1.3-27.8 7l-40.4 49.3zM304.7 368l40.3-49.3c11.2-13.7 30-18.4 46.3-11.6l96 40c18.6 7.7 28.5 28 23.2 47.4l-24 88C481.8 499.9 466 512 448 512 200.6 512 0 311.4 0 64c0-18 12.1-33.8 29.5-38.6l88-24c19.4-5.3 39.7 4.6 47.4 23.2l40 96c6.8 16.3 2.1 35.2-11.6 46.3L144 207.3c33.3 70.4 90.3 127.4 160.7 160.7z"/></symbol><symbol viewBox="0 0 256 256" id="play-button" xmlns="http://www.w3.org/2000/svg"><path fill="currentColor" d="M226.3 116.6c-9.9-5.8-171.7-98.4-183.5-104.9C34.2 7 23 12.3 23 23v209.7c0 9.8 10.2 17 20.3 11.3 8.1-4.6 169.3-96.8 183-104.6 9-5.2 8.9-17.6 0-22.8z"/></symbol><symbol viewBox="0 0 16 16" id="square-icon" xmlns="http://www.w3.org/2000/svg"><path fill="currentColor" d="M14 1a1 1 0 0 1 1 1v12a1 1 0 0 1-1 1H2a1 1 0 0 1-1-1V2a1 1 0 0 1 1-1zM2 0a2 2 0 0 0-2 2v12a2 2 0 0 0 2 2h12a2 2 0 0 0 2-2V2a2 2 0 0 0-2-2z"/></symbol><symbol viewBox="0 0 330 330" id="up-arrow-icon" xmlns="http://www.w3.org/2000/svg"><path fill="currentColor" d="m325.606 229.393-150.004-150a14.997 14.997 0 0 0-21.213.001l-149.996 150c-5.858 5.858-5.858 15.355 0 21.213 5.857 5.857 15.355 5.858 21.213 0l139.39-139.393 139.397 139.393A14.953 14.953 0 0 0 315 255a14.95 14.95 0 0 0 10.607-4.394c5.857-5.858 5.857-15.355-.001-21.213z"/></symbol><symbol viewBox="0 0 448 512" id="user-icon" xmlns="http://www.w3.org/2000/svg"><path fill="currentColor" d="M224 256a128 128 0 1 0 0-256 128 128 0 1 0 0 256zm-45.7 48C79.8 304 0 383.8 0 482.3 0 498.7 13.3 512 29.7 512h388.6c16.4 0 29.7-13.3 29.7-29.7 0-98.5-79.8-178.3-178.3-178.3h-91.4z"/></symbol><symbol viewBox="0 0 448 512" id="user-thin-icon" xmlns="http://www.w3.org/2000/svg"><path fill="currentColor" d="M336 128a112 112 0 1 0-224 0 112 112 0 1 0 224 0zm-240 0a128 128 0 1 1 256 0 128 128 0 1 1-256 0zM16 482.3c0 7.6 6.1 13.7 13.7 13.7h388.6c7.6 0 13.7-6.1 13.7-13.7 0-89.6-72.7-162.3-162.3-162.3h-91.4C88.7 320 16 392.7 16 482.3zm-16 0C0 383.8 79.8 304 178.3 304h91.4c98.5 0 178.3 79.8 178.3 178.3 0 16.4-13.3 29.7-29.7 29.7H29.7C13.3 512 0 498.7 0 482.3z"/></symbol><symbol viewBox="0 0 1000 1000" id="warning-icon" xmlns="http://www.w3.org/2000/svg"><path fill="currentColor" d="M500 0C224 0 0 224 0 500s224 500 500 500 500-224 500-500S776 0 500 0m0 25c262 0 475 213 475 475S762 975 500 975 25 762 25 500 238 25 500 25m26 125c50 0 76 25 75 74-1 76-1 126-26 301-5 35-15 50-50 50h-50c-35 0-45-15-50-50-25-170-25-225-25-299 0-51 25-76 75-76m25 500c27 0 52 11 71 29 18 19 29 44 29 71 0 55-45 100-100 100s-100-45-100-100c0-27 11-52 29-71 19-18 44-29 71-29"/></symbol><symbol viewBox="0 0 384 512" id="x-light" xmlns="http://www.w3.org/2000/svg"><path fill="currentColor" d="M380.2 58.3c5.7-6.7 4.9-16.8-1.9-22.5s-16.8-4.9-22.6 1.9L192 231.2 28.2 37.7c-5.7-6.7-15.8-7.6-22.5-1.9s-7.6 15.8-1.9 22.5L171 256 3.8 453.7c-5.7 6.7-4.9 16.8 1.9 22.6s16.8 4.9 22.5-1.9L192 280.8l163.8 193.5c5.7 6.7 15.8 7.6 22.6 1.9s7.6-15.8 1.9-22.6L213 256 380.2 58.3z"/></symbol></svg>