<?xml version="1.0" encoding="UTF-8" standalone="no"?>
<!-- Created with Inkscape (http://www.inkscape.org/) -->

<svg
   width="839.0155"
   height="190.73601"
   viewBox="0 0 839.0155 190.73601"
   version="1.1"
   id="svg5"
   inkscape:version="1.2 (dc2aedaf03, 2022-05-15)"
   sodipodi:docname="beast_logo.svg"
   xmlns:inkscape="http://www.inkscape.org/namespaces/inkscape"
   xmlns:sodipodi="http://sodipodi.sourceforge.net/DTD/sodipodi-0.dtd"
   xmlns="http://www.w3.org/2000/svg"
   xmlns:svg="http://www.w3.org/2000/svg">
  <sodipodi:namedview
     id="namedview7"
     pagecolor="#ffffff"
     bordercolor="#666666"
     borderopacity="1.0"
     inkscape:showpageshadow="2"
     inkscape:pageopacity="0.0"
     inkscape:pagecheckerboard="0"
     inkscape:deskcolor="#d1d1d1"
     inkscape:document-units="px"
     showgrid="false"
     inkscape:zoom="1.2361274"
     inkscape:cx="88.583102"
     inkscape:cy="74.425985"
     inkscape:window-width="3440"
     inkscape:window-height="1387"
     inkscape:window-x="2552"
     inkscape:window-y="-8"
     inkscape:window-maximized="1"
     inkscape:current-layer="layer1" />
  <defs
     id="defs2">
    <rect
       x="242.54237"
       y="146.44067"
       width="1427.7966"
       height="585.7627"
       id="rect63" />
    <rect
       x="242.54237"
       y="146.44067"
       width="1427.7966"
       height="585.7627"
       id="rect63-1" />
  </defs>
  <g
     inkscape:label="Lag 1"
     inkscape:groupmode="layer"
     id="layer1"
     transform="translate(-285.48889,-170.06823)">
    <g
       aria-label="BEAST"
       transform="translate(146.8678,16.821242)"
       id="text61-5"
       style="font-size:40px;line-height:1.25;letter-spacing:0px;word-spacing:0px;white-space:pre;shape-inside:url(#rect63-1);fill:#1a1a1a">
      <path
         d="m 244.98437,156.32548 h 59.22791 q 30.78369,0 46.1755,11.57469 15.39188,11.69782 15.39188,34.84714 0,17.60828 -9.11196,27.70532 -8.98883,9.85079 -26.72025,11.57469 10.83586,0.98508 18.71649,4.67914 7.88063,3.57087 13.05228,9.48135 10.58961,12.06726 10.58961,33.86211 0,26.474 -16.00757,38.41807 -16.00752,11.94407 -52.08598,11.94407 h -59.22791 z m 59.22791,71.66449 q 7.38806,0 12.0672,-1.23133 4.67913,-1.2314 7.63437,-3.81719 2.83205,-2.46273 4.3097,-6.15679 1.47758,-3.81712 1.47758,-9.97391 0,-5.4179 -1.35446,-9.48135 -1.35446,-4.06344 -4.55601,-6.89555 -2.58579,-2.21647 -7.1418,-3.69406 -4.43283,-1.47765 -12.43658,-1.47765 h -24.13446 v 42.72783 z m 0,83.36224 q 17.36197,0 24.38065,-5.91047 6.89555,-5.91047 6.89555,-20.56346 0,-14.89937 -7.26493,-21.42548 -7.26494,-6.52617 -24.01127,-6.52617 h -24.13446 v 54.42558 z"
         style="font-weight:bold;font-family:Hack;-inkscape-font-specification:'Hack Bold';fill:#1a1a1a;stroke-width:6.3045"
         id="path313" />
      <path
         d="m 402.10444,156.57174 h 114.51538 v 32.01508 h -78.19059 v 39.6494 h 70.80253 v 32.01509 h -70.80253 v 48.14566 h 78.19059 v 32.01509 H 402.10444 Z"
         style="font-weight:bold;font-family:Hack;-inkscape-font-specification:'Hack Bold';fill:#1a1a1a;stroke-width:6.3045"
         id="path315" />
      <path
         d="m 586.92985,156.57174 h 44.45166 l 49.62331,183.84032 h -36.32478 l -11.32837,-45.43674 h -48.6383 l -11.08212,45.43674 h -36.32478 z m 39.40314,108.48177 -17.23891,-75.23535 -17.11571,75.23535 z"
         style="font-weight:bold;font-family:Hack;-inkscape-font-specification:'Hack Bold';fill:#1a1a1a;stroke-width:6.3045"
         id="path317" />
      <path
         d="m 756.73275,343.98299 q -7.38812,0 -14.4068,-0.73882 -7.01867,-0.73883 -14.03735,-2.46273 -14.03736,-3.32462 -26.59712,-9.72766 v -37.55611 q 7.63437,5.41796 14.40679,9.11202 6.77243,3.694 13.79111,6.27985 13.66797,5.04852 26.59712,5.04852 7.01868,0 12.19032,-1.47758 5.17165,-1.60078 8.86571,-4.67914 7.38812,-6.0336 7.38812,-16.99259 0,-8.3732 -4.92539,-14.52993 -2.58586,-3.20149 -6.27992,-5.54109 -3.57087,-2.46266 -8.00375,-4.18657 l -17.85455,-6.77242 q -14.16048,-5.4179 -23.2725,-10.83587 -9.11196,-5.54109 -13.91423,-11.20524 -9.72766,-11.32844 -9.72766,-30.90688 0,-25.11948 16.00758,-39.28002 16.13064,-14.28361 43.83596,-14.28361 6.6493,0 13.17541,0.73882 6.52617,0.73877 12.31351,2.09329 5.78735,1.35446 12.19033,3.57087 6.52617,2.09335 12.92915,5.04858 v 35.46283 q -11.57463,-8.25007 -23.76502,-12.55976 -12.19032,-4.30976 -24.01127,-4.30976 -13.1754,0 -20.07095,5.29483 -7.01874,5.4179 -7.01874,15.02244 0,7.7575 5.17171,12.68289 2.46266,2.46267 7.26493,5.04852 4.92539,2.58586 14.03736,6.0336 l 15.63813,5.91047 q 22.28742,8.3732 32.63072,21.42548 10.46648,13.42172 10.46648,34.60088 0,27.21282 -16.50008,40.88079 -16.62321,13.7911 -48.51511,13.7911 z"
         style="font-weight:bold;font-family:Hack;-inkscape-font-specification:'Hack Bold';fill:#1a1a1a;stroke-width:6.3045"
         id="path319" />
      <path
         d="m 894.64376,188.34057 h -46.66808 v -31.76883 h 129.66094 v 31.76883 h -46.66808 v 152.07149 h -36.32478 z"
         style="font-weight:bold;font-family:Hack;-inkscape-font-specification:'Hack Bold';fill:#1a1a1a;stroke-width:6.3045"
         id="path321" />
    </g>
    <g
       aria-label="THE"
       id="text61"
       style="font-size:40px;line-height:1.25;letter-spacing:0px;word-spacing:0px;white-space:pre;shape-inside:url(#rect63)"
       transform="matrix(0,2.8110776,-2.8110776,0,799.7323,-516.68022)">
      <path
         d="m 251.70312,158.81353 h -7.40234 v -5.03907 h 20.56641 v 5.03907 h -7.40235 v 24.12109 h -5.76172 z"
         style="font-weight:bold;font-family:Hack;-inkscape-font-specification:'Hack Bold';fill:#4d4d4d"
         id="path324" />
      <path
         d="m 269.30078,153.77446 h 5.76172 v 11.11328 h 7.20703 v -11.11328 h 5.76172 v 29.16016 h -5.76172 v -12.96875 h -7.20703 v 12.96875 h -5.76172 z"
         style="font-weight:bold;font-family:Hack;-inkscape-font-specification:'Hack Bold';fill:#4d4d4d"
         id="path326" />
      <path
         d="m 293.98828,153.77446 h 18.16406 v 5.07813 H 299.75 v 6.28906 h 11.23047 v 5.07813 H 299.75 v 7.63671 h 12.40234 v 5.07813 h -18.16406 z"
         style="font-weight:bold;font-family:Hack;-inkscape-font-specification:'Hack Bold';fill:#4d4d4d"
         id="path328" />
    </g>
  </g>
</svg>
